<!DOCTYPE svg PUBLIC "-//W3C//DTD SVG 1.1//EN" "http://www.w3.org/Graphics/SVG/1.1/DTD/svg11.dtd">
<!-- Uploaded to: SVG Repo, www.svgrepo.com, Transformed by: SVG Repo Mixer Tools -->
<svg height="100px" width="100px" version="1.1" id="Layer_1" xmlns="http://www.w3.org/2000/svg" xmlns:xlink="http://www.w3.org/1999/xlink" viewBox="0 0 512 512" xml:space="preserve" fill="#FFE5E7" stroke="#FFE5E7">
<g id="SVGRepo_bgCarrier" stroke-width="0"/>
<g id="SVGRepo_tracerCarrier" stroke-linecap="round" stroke-linejoin="round"/>
<g id="SVGRepo_iconCarrier"> <path style="fill:#FFC6CA;" d="M344.438,512c-5.297,0-8.828-3.531-8.828-8.828v-45.021c-0.883,0.883-2.648,1.766-3.531,2.648 l-7.945,5.297c-3.531,2.648-6.179,4.414-9.71,7.062c-14.124,10.593-29.131,21.186-49.434,21.186 c-20.303,0-35.31-10.593-49.434-21.186c-3.531-2.648-6.179-4.414-9.71-7.062L197.9,460.8c-0.883-0.883-1.766-0.883-2.648-1.766 v44.138c0,5.297-3.531,8.828-8.828,8.828s-8.828-3.531-8.828-8.828v-61.793c0-3.531,1.766-6.179,4.414-7.945 c2.648-1.766,6.179-0.883,8.828,0.883c5.297,3.531,10.593,7.062,16.772,11.476l8.828,5.297c3.531,2.648,7.062,5.297,10.593,7.062 c12.359,8.828,23.834,17.655,38.841,17.655c15.007,0,26.483-8.828,38.841-17.655c3.531-2.648,7.062-5.297,10.593-7.062l8.828-5.297 c5.297-3.531,11.476-7.945,16.772-11.476c2.648-1.766,6.179-1.766,8.828-0.883c2.648,1.766,4.414,4.414,4.414,7.945v61.793 C353.266,508.469,348.852,512,344.438,512z"/> <path style="fill:#FFC6CA5E7;" d="M263.225,61.793h-7.062h-7.945c0,0-142.124-7.945-142.124,203.917 c0,55.614,4.414,116.524,45.903,156.248c15.007,14.124,32.662,25.6,49.434,37.076s31.779,26.483,53.848,26.483 c22.069,0,37.076-15.007,53.848-26.483s34.428-22.952,49.434-37.076c41.49-39.724,45.903-100.634,45.903-156.248 C406.231,53.848,263.225,61.793,263.225,61.793"/> <path style="fill:#FFC6CA;" d="M453.018,180.083c-2.648-19.421-7.062-38.841-15.007-56.497 C387.694,4.414,256.162,8.828,256.162,8.828S123.749,4.414,73.431,123.586c-7.945,17.655-12.359,37.076-14.124,56.497 c-8.828,70.621-25.6,295.724,82.097,314.262c0,0,4.414-28.248,48.552-43.255c-13.241-8.828-26.483-17.655-37.959-29.131 c-42.372-39.724-45.903-100.634-45.903-156.248c0-211.862,142.124-203.917,142.124-203.917h7.945h7.945 c-0.883,0,142.124-7.945,142.124,203.917c0,55.614-4.414,116.524-45.903,156.248c-11.476,10.593-24.717,20.303-37.959,29.131 c44.138,15.007,48.552,43.255,48.552,43.255C478.618,475.807,460.962,250.703,453.018,180.083"/> <path style="fill:#FFC6CAA800;" d="M460.962,180.083c-1.766-19.421-6.179-38.841-14.124-56.497 C395.638,4.414,264.107,8.828,264.107,8.828s-5.297,0-13.241,0c35.31,2.648,128.883,18.538,169.49,114.759 c7.945,17.655,12.359,37.076,14.124,56.497c7.945,65.324,22.952,260.414-59.145,306.317c2.648,5.297,2.648,7.945,2.648,7.945 C486.562,475.807,469.79,250.703,460.962,180.083"/> <path style="fill:#FFC6CAFFFF;" d="M50.48,180.083c1.766-19.421,6.179-38.841,14.124-56.497C115.804,4.414,247.335,8.828,247.335,8.828 s5.297,0,13.241,0c-35.31,2.648-128.883,18.538-169.49,114.759c-7.945,17.655-12.359,37.076-14.124,56.497 c-7.945,65.324-22.952,261.297,58.262,306.317c-2.648,4.414-2.648,7.945-2.648,7.945C24.88,475.807,41.652,250.703,50.48,180.083"/> <path style="fill:#FFC6CA;" d="M114.921,203.034c36.193,0,95.338-47.669,124.469-73.269c9.71-7.945,23.834-7.945,33.545,0 c29.131,25.6,88.276,73.269,124.469,73.269l3.531-0.883c-25.6-146.538-137.71-140.359-137.71-140.359h-7.062h-7.945 c0,0-112.11-6.179-136.828,141.241H114.921z"/> <path d="M256.162,494.345c-20.303,0-35.31-10.593-49.434-21.186c-3.531-2.648-6.179-4.414-9.71-7.062l-8.828-5.297 c-14.124-9.71-29.131-19.421-42.372-31.779c-43.255-41.49-48.552-103.283-48.552-163.31c0-206.566,133.297-212.745,148.303-212.745 c1.766,0,2.648,0,2.648,0h15.007c0,0,0.883,0,1.766,0c15.89,0,150.069,6.179,150.069,212.745c0,60.028-6.179,121.821-48.552,162.428 c-13.241,12.359-28.248,22.069-42.372,31.779l-8.828,5.297c-3.531,2.648-6.179,4.414-9.71,7.062 C290.59,483.752,276.466,494.345,256.162,494.345z M245.569,70.621c-21.186,0-130.648,9.71-130.648,195.09 c0,52.083,3.531,112.11,43.255,150.069c12.359,11.476,26.483,21.186,39.724,30.014l8.828,5.297 c3.531,2.648,7.062,5.297,10.593,7.062c12.359,8.828,23.834,17.655,38.841,17.655c15.007,0,26.483-8.828,38.841-17.655 c3.531-2.648,7.062-5.297,10.593-7.062l8.828-6.179c14.124-8.828,28.248-18.538,39.724-30.014 c39.724-37.959,43.255-97.103,43.255-150.069c0-184.497-109.462-194.207-131.531-194.207h-17.655H245.569z"/> <path d="M335.611,512c-5.297,0-8.828-3.531-8.828-8.828v-45.021c-0.883,0.883-2.648,1.766-3.531,2.648l-7.945,5.297 c-3.531,2.648-6.179,4.414-9.71,7.062c-15.007,10.593-29.131,21.186-49.434,21.186s-35.31-10.593-49.434-21.186 c-3.531-2.648-6.179-4.414-9.71-7.062l-7.945-5.297c-0.883-0.883-1.766-0.883-2.648-1.766v44.138c0,5.297-3.531,8.828-8.828,8.828 s-8.828-3.531-8.828-8.828v-61.793c0-3.531,1.766-6.179,4.414-7.945c2.648-1.766,6.179-0.883,8.828,0.883 c5.297,3.531,10.593,7.062,16.772,11.476l8.828,5.297c3.531,2.648,7.062,5.297,10.593,7.062 c12.359,8.828,23.834,17.655,38.841,17.655c15.007,0,26.483-8.828,38.841-17.655c3.531-2.648,7.062-5.297,10.593-7.062l8.828-5.297 c5.297-3.531,11.476-7.945,16.772-11.476c2.648-1.766,6.179-1.766,8.828-0.883c2.648,1.766,4.414,4.414,4.414,7.945v61.793 C344.438,508.469,340.025,512,335.611,512z"/> <path d="M362.976,504.938l-1.766-8.828c0-1.766-5.297-23.835-43.255-37.076l-16.772-6.179l15.007-9.71 c13.241-8.828,25.6-17.655,37.076-28.248c39.724-37.959,43.255-97.103,43.255-150.069C397.404,80.331,287.942,70.621,265.873,70.621 h-17.655h-1.766c-6.179,0-39.724,0.883-70.621,26.483c-40.607,31.779-60.91,88.276-60.91,168.607 c0,52.083,3.531,112.11,43.255,150.069c10.593,10.593,23.834,19.421,37.076,28.248l15.007,9.71l-17.655,5.297 c-37.959,13.241-42.372,36.193-43.255,37.076l-1.766,8.828l-8.828-1.766C27.528,483.752,39.887,270.124,49.597,179.2 c2.648-22.069,7.945-41.49,15.007-59.145C114.921,3.531,239.39,0,253.514,0h2.648h1.766c14.124,0,138.593,3.531,188.91,120.055 c7.945,17.655,12.359,37.959,15.007,59.145c10.593,90.924,22.952,304.552-89.159,323.972L362.976,504.938z M340.025,449.324 c22.069,11.476,31.779,25.6,36.193,35.31c91.807-26.483,75.034-237.462,67.972-302.786c-2.648-20.303-7.062-38.841-14.124-54.731 C385.045,20.303,270.287,17.655,257.928,17.655h-1.766h-2.648c-12.359,0-127.117,2.648-172.138,109.462 c-7.062,15.89-11.476,34.428-14.124,54.731c-7.945,65.324-24.717,276.303,67.972,302.786c4.414-8.828,14.124-23.835,36.193-35.31 c-8.828-6.179-17.655-13.241-25.6-20.303c-43.255-41.49-48.552-103.283-48.552-163.31c0-206.566,133.297-212.745,148.303-212.745 c1.766,0,2.648,0,2.648,0h15.007c0,0,0.883,0,1.766,0c15.89,0,150.069,6.179,150.069,212.745c0,60.028-6.179,121.821-48.552,162.428 C357.68,436.083,348.852,442.262,340.025,449.324z"/> <path d="M397.404,211.862c-38.841,0-97.986-46.786-130.648-75.034c-6.179-5.297-15.89-5.297-22.069,0 c-31.779,28.248-91.807,75.034-129.766,75.034h-4.414c-2.648,0-5.297-0.883-7.062-3.531c-1.766-1.766-2.648-4.414-1.766-7.062 c24.717-143.89,132.414-148.303,143.89-148.303c1.766,0,2.648,0,2.648,0h15.007c0,0,0.883,0,1.766,0 c12.359,0,119.172,4.414,143.89,147.421c0.883,4.414-2.648,8.828-7.062,10.593l-3.531,0.883H397.404z M256.162,114.759 c7.945,0,15.89,2.648,22.952,8.828c46.786,40.607,86.51,66.207,112.11,70.621C365.625,76.8,282.645,70.621,265.873,70.621h-17.655 h-1.766c-17.655,0-100.634,6.179-125.352,122.703c24.717-4.414,65.324-29.131,112.11-70.621 C239.39,117.407,247.335,114.759,256.162,114.759z"/> </g>
</svg>