<?xml version="1.0" standalone="no"?>
<!DOCTYPE svg PUBLIC "-//W3C//DTD SVG 20010904//EN"
 "http://www.w3.org/TR/2001/REC-SVG-20010904/DTD/svg10.dtd">
<svg version="1.0" xmlns="http://www.w3.org/2000/svg"
 width="512.000000pt" height="512.000000pt" viewBox="0 0 512.000000 512.000000"
 preserveAspectRatio="xMidYMid meet">

<g transform="translate(0.000000,512.000000) scale(0.100000,-0.100000)"
fill="#000000" stroke="none">
<path d="M3075 5015 c-22 -21 -25 -33 -25 -103 l0 -79 -91 -6 c-53 -4 -108
-15 -133 -25 -77 -35 -134 -111 -151 -204 l-7 -38 -1152 -2 -1151 -3 -49 -23
c-68 -31 -131 -85 -171 -146 -69 -103 -66 -28 -63 -1507 l3 -1334 24 -60 c33
-83 133 -183 216 -216 l60 -24 669 -3 669 -3 -6 -97 c-11 -157 -44 -320 -93
-459 l-26 -73 -147 0 c-173 0 -227 -12 -290 -67 -120 -102 -121 -288 -4 -394
81 -73 13 -70 1229 -67 l1089 3 53 29 c160 89 185 299 49 423 -65 60 -119 73
-293 73 -166 0 -148 -12 -195 126 -40 122 -88 382 -89 487 0 16 37 17 645 17
439 0 661 4 697 11 118 25 220 105 274 214 l29 60 3 586 3 586 98 5 c116 6
172 28 225 90 69 80 66 40 66 973 0 932 3 893 -65 972 -47 55 -114 82 -225 90
l-90 6 0 82 c0 72 -3 84 -23 103 -22 20 -33 22 -166 22 -137 0 -143 -1 -166
-25 -22 -22 -25 -32 -25 -105 l0 -80 -114 0 -114 0 -3 86 c-5 122 -8 124 -195
124 -183 0 -184 -1 -184 -125 l0 -85 -120 0 -120 0 0 83 c0 74 -3 86 -23 105
-22 20 -33 22 -166 22 -137 0 -143 -1 -166 -25z m215 -261 l0 -145 -47 3 -48
3 -3 143 -3 142 51 0 50 0 0 -146z m618 4 l-3 -143 -47 -3 -48 -3 0 145 0 146
50 0 51 0 -3 -142z m612 -4 l0 -145 -47 3 -48 3 -3 143 -3 142 51 0 50 0 0
-146z m-1470 -153 c0 -63 4 -84 19 -102 19 -23 24 -24 171 -24 147 0 152 1
171 24 15 18 19 39 19 102 l0 79 120 0 120 0 0 -83 c0 -118 4 -121 172 -125
189 -5 208 8 208 138 l0 70 115 0 115 0 0 -79 c0 -63 4 -84 19 -102 19 -23 24
-24 169 -24 191 0 192 1 192 122 l0 83 83 0 c130 0 157 -31 157 -180 l0 -90
-1045 0 -1045 0 0 74 c0 101 8 132 42 167 28 27 34 29 114 29 l84 0 0 -79z
m-378 -943 l3 -763 30 -54 c30 -54 61 -83 125 -117 33 -18 77 -19 858 -22
l822 -3 0 -339 0 -340 -1200 0 -1200 0 0 218 c0 119 -5 233 -10 252 -18 64
-108 130 -177 130 -15 0 -47 -9 -70 -20 -43 -19 -43 -19 -89 2 -51 22 -102 20
-154 -7 -26 -13 -33 -13 -76 6 -31 14 -58 19 -80 16 l-34 -6 0 80 0 79 230 0
c217 0 231 1 250 20 19 19 20 33 20 370 0 337 -1 351 -20 370 -20 20 -33 20
-600 20 l-579 0 -21 -22 c-19 -21 -20 -33 -20 -364 0 -330 1 -342 21 -368 l20
-26 165 0 164 0 0 -265 0 -265 -36 0 c-82 0 -157 -77 -170 -173 l-7 -47 -309
0 -308 0 2 1113 3 1112 22 42 c26 48 86 102 134 119 26 10 302 13 1161 13
l1127 1 3 -762z m2228 -55 c0 -652 -1 -669 -20 -701 -40 -65 5 -62 -1022 -61
-696 0 -942 3 -967 12 -19 7 -44 25 -55 40 -21 28 -21 36 -24 703 l-3 674
1046 0 1045 0 0 -667z m-3120 -443 l0 -250 -180 0 -180 0 0 90 c0 126 -28 179
-113 215 -95 39 -192 -1 -238 -100 -13 -29 -19 -64 -19 -122 l0 -83 -115 0
-115 0 0 250 0 250 480 0 480 0 0 -250z m-512 -82 c9 -9 12 -98 12 -339 0
-315 1 -327 21 -353 37 -48 119 -22 119 37 0 13 9 32 19 41 29 27 59 12 71
-34 11 -40 41 -70 71 -70 26 0 69 39 69 64 0 13 9 31 19 40 29 27 57 12 73
-37 8 -26 23 -47 41 -57 24 -13 30 -13 55 0 15 9 32 30 38 48 5 18 17 40 26
48 21 21 56 10 64 -20 3 -13 4 -122 2 -242 l-3 -219 -34 -67 c-64 -127 -180
-207 -315 -216 -177 -11 -297 34 -468 177 -59 49 -115 95 -126 103 -34 24 -45
56 -31 90 l12 30 77 -7 c118 -10 110 -49 110 502 0 406 2 463 16 477 18 19 45
21 62 4z m-198 -1313 c150 -120 210 -156 301 -181 79 -22 264 -30 330 -14 135
31 264 126 333 244 l39 66 1218 0 1219 0 0 -154 c0 -149 -1 -155 -28 -207 -35
-67 -95 -114 -164 -128 -38 -8 -618 -11 -1983 -9 l-1930 3 -41 22 c-53 28 -96
71 -120 120 -15 30 -19 66 -22 181 -2 78 -1 149 2 157 5 13 57 15 353 15 l348
0 145 -115z m1795 -607 c14 -164 54 -354 112 -530 5 -17 -29 -18 -612 -18
-584 0 -617 1 -610 18 44 113 92 355 102 510 l6 102 497 0 498 0 7 -82z m592
-705 c43 -20 77 -87 67 -130 -11 -46 -43 -82 -82 -93 -26 -8 -365 -10 -1100
-8 l-1064 3 -34 37 c-28 31 -34 46 -34 82 0 51 27 91 74 112 25 11 225 13
1084 14 966 0 1057 -1 1089 -17z"/>
<path d="M4105 3912 c-16 -10 -99 -80 -182 -155 -84 -76 -157 -137 -162 -137
-5 0 -38 24 -73 54 -79 67 -116 86 -168 86 -141 0 -233 -158 -160 -277 24 -41
291 -270 335 -288 40 -17 76 -19 126 -5 53 15 515 429 540 484 36 79 13 169
-56 222 -50 38 -153 46 -200 16z m123 -134 c7 -7 12 -20 12 -30 0 -19 -427
-407 -465 -422 -20 -8 -38 4 -149 98 -149 127 -161 142 -142 171 25 38 48 29
151 -60 73 -62 108 -85 128 -85 21 0 69 37 218 170 189 168 218 187 247 158z"/>
<path d="M2145 1675 c-30 -30 -31 -54 -4 -89 l20 -26 205 0 c191 0 205 1 224
20 27 27 26 71 -3 98 -22 21 -32 22 -221 22 -196 0 -197 0 -221 -25z"/>
</g>
</svg>
